<svg xmlns="http://www.w3.org/2000/svg" xml:space="preserve" xmlns:xlink="http://www.w3.org/1999/xlink" style="max-width: 100%;height: auto;" width="980" height="980" viewBox="0 0 980 980">
<rect width="980" height="980" fill="#ffffff" x="0" y="0" />
<g fill="#000000">
<g transform="translate(200,40) scale(3.4333333333333)"><rect width="6" height="6"/></g>
<g transform="translate(260,40) scale(3.4333333333333)"><rect width="6" height="6"/></g>
<g transform="translate(320,40) scale(3.4333333333333)"><rect width="6" height="6"/></g>
<g transform="translate(380,40) scale(3.4333333333333)"><rect width="6" height="6"/></g>
<g transform="translate(400,40) scale(3.4333333333333)"><rect width="6" height="6"/></g>
<g transform="translate(420,40) scale(3.4333333333333)"><rect width="6" height="6"/></g>
<g transform="translate(540,40) scale(3.4333333333333)"><rect width="6" height="6"/></g>
<g transform="translate(660,40) scale(3.4333333333333)"><rect width="6" height="6"/></g>
<g transform="translate(680,40) scale(3.4333333333333)"><rect width="6" height="6"/></g>
<g transform="translate(760,40) scale(3.4333333333333)"><rect width="6" height="6"/></g>
<g transform="translate(200,60) scale(3.4333333333333)"><rect width="6" height="6"/></g>
<g transform="translate(220,60) scale(3.4333333333333)"><rect width="6" height="6"/></g>
<g transform="translate(260,60) scale(3.4333333333333)"><rect width="6" height="6"/></g>
<g transform="translate(280,60) scale(3.4333333333333)"><rect width="6" height="6"/></g>
<g transform="translate(340,60) scale(3.4333333333333)"><rect width="6" height="6"/></g>
<g transform="translate(400,60) scale(3.4333333333333)"><rect width="6" height="6"/></g>
<g transform="translate(440,60) scale(3.4333333333333)"><rect width="6" height="6"/></g>
<g transform="translate(480,60) scale(3.4333333333333)"><rect width="6" height="6"/></g>
<g transform="translate(540,60) scale(3.4333333333333)"><rect width="6" height="6"/></g>
<g transform="translate(560,60) scale(3.4333333333333)"><rect width="6" height="6"/></g>
<g transform="translate(620,60) scale(3.4333333333333)"><rect width="6" height="6"/></g>
<g transform="translate(640,60) scale(3.4333333333333)"><rect width="6" height="6"/></g>
<g transform="translate(680,60) scale(3.4333333333333)"><rect width="6" height="6"/></g>
<g transform="translate(700,60) scale(3.4333333333333)"><rect width="6" height="6"/></g>
<g transform="translate(740,60) scale(3.4333333333333)"><rect width="6" height="6"/></g>
<g transform="translate(200,80) scale(3.4333333333333)"><rect width="6" height="6"/></g>
<g transform="translate(220,80) scale(3.4333333333333)"><rect width="6" height="6"/></g>
<g transform="translate(260,80) scale(3.4333333333333)"><rect width="6" height="6"/></g>
<g transform="translate(300,80) scale(3.4333333333333)"><rect width="6" height="6"/></g>
<g transform="translate(320,80) scale(3.4333333333333)"><rect width="6" height="6"/></g>
<g transform="translate(340,80) scale(3.4333333333333)"><rect width="6" height="6"/></g>
<g transform="translate(400,80) scale(3.4333333333333)"><rect width="6" height="6"/></g>
<g transform="translate(440,80) scale(3.4333333333333)"><rect width="6" height="6"/></g>
<g transform="translate(480,80) scale(3.4333333333333)"><rect width="6" height="6"/></g>
<g transform="translate(520,80) scale(3.4333333333333)"><rect width="6" height="6"/></g>
<g transform="translate(640,80) scale(3.4333333333333)"><rect width="6" height="6"/></g>
<g transform="translate(660,80) scale(3.4333333333333)"><rect width="6" height="6"/></g>
<g transform="translate(680,80) scale(3.4333333333333)"><rect width="6" height="6"/></g>
<g transform="translate(700,80) scale(3.4333333333333)"><rect width="6" height="6"/></g>
<g transform="translate(740,80) scale(3.4333333333333)"><rect width="6" height="6"/></g>
<g transform="translate(240,100) scale(3.4333333333333)"><rect width="6" height="6"/></g>
<g transform="translate(260,100) scale(3.4333333333333)"><rect width="6" height="6"/></g>
<g transform="translate(360,100) scale(3.4333333333333)"><rect width="6" height="6"/></g>
<g transform="translate(400,100) scale(3.4333333333333)"><rect width="6" height="6"/></g>
<g transform="translate(540,100) scale(3.4333333333333)"><rect width="6" height="6"/></g>
<g transform="translate(580,100) scale(3.4333333333333)"><rect width="6" height="6"/></g>
<g transform="translate(620,100) scale(3.4333333333333)"><rect width="6" height="6"/></g>
<g transform="translate(680,100) scale(3.4333333333333)"><rect width="6" height="6"/></g>
<g transform="translate(700,100) scale(3.4333333333333)"><rect width="6" height="6"/></g>
<g transform="translate(740,100) scale(3.4333333333333)"><rect width="6" height="6"/></g>
<g transform="translate(760,100) scale(3.4333333333333)"><rect width="6" height="6"/></g>
<g transform="translate(260,120) scale(3.4333333333333)"><rect width="6" height="6"/></g>
<g transform="translate(280,120) scale(3.4333333333333)"><rect width="6" height="6"/></g>
<g transform="translate(300,120) scale(3.4333333333333)"><rect width="6" height="6"/></g>
<g transform="translate(320,120) scale(3.4333333333333)"><rect width="6" height="6"/></g>
<g transform="translate(360,120) scale(3.4333333333333)"><rect width="6" height="6"/></g>
<g transform="translate(400,120) scale(3.4333333333333)"><rect width="6" height="6"/></g>
<g transform="translate(420,120) scale(3.4333333333333)"><rect width="6" height="6"/></g>
<g transform="translate(440,120) scale(3.4333333333333)"><rect width="6" height="6"/></g>
<g transform="translate(460,120) scale(3.4333333333333)"><rect width="6" height="6"/></g>
<g transform="translate(480,120) scale(3.4333333333333)"><rect width="6" height="6"/></g>
<g transform="translate(500,120) scale(3.4333333333333)"><rect width="6" height="6"/></g>
<g transform="translate(520,120) scale(3.4333333333333)"><rect width="6" height="6"/></g>
<g transform="translate(580,120) scale(3.4333333333333)"><rect width="6" height="6"/></g>
<g transform="translate(620,120) scale(3.4333333333333)"><rect width="6" height="6"/></g>
<g transform="translate(640,120) scale(3.4333333333333)"><rect width="6" height="6"/></g>
<g transform="translate(660,120) scale(3.4333333333333)"><rect width="6" height="6"/></g>
<g transform="translate(680,120) scale(3.4333333333333)"><rect width="6" height="6"/></g>
<g transform="translate(700,120) scale(3.4333333333333)"><rect width="6" height="6"/></g>
<g transform="translate(720,120) scale(3.4333333333333)"><rect width="6" height="6"/></g>
<g transform="translate(740,120) scale(3.4333333333333)"><rect width="6" height="6"/></g>
<g transform="translate(760,120) scale(3.4333333333333)"><rect width="6" height="6"/></g>
<g transform="translate(200,140) scale(3.4333333333333)"><rect width="6" height="6"/></g>
<g transform="translate(260,140) scale(3.4333333333333)"><rect width="6" height="6"/></g>
<g transform="translate(320,140) scale(3.4333333333333)"><rect width="6" height="6"/></g>
<g transform="translate(380,140) scale(3.4333333333333)"><rect width="6" height="6"/></g>
<g transform="translate(400,140) scale(3.4333333333333)"><rect width="6" height="6"/></g>
<g transform="translate(440,140) scale(3.4333333333333)"><rect width="6" height="6"/></g>
<g transform="translate(520,140) scale(3.4333333333333)"><rect width="6" height="6"/></g>
<g transform="translate(540,140) scale(3.4333333333333)"><rect width="6" height="6"/></g>
<g transform="translate(580,140) scale(3.4333333333333)"><rect width="6" height="6"/></g>
<g transform="translate(600,140) scale(3.4333333333333)"><rect width="6" height="6"/></g>
<g transform="translate(620,140) scale(3.4333333333333)"><rect width="6" height="6"/></g>
<g transform="translate(640,140) scale(3.4333333333333)"><rect width="6" height="6"/></g>
<g transform="translate(200,160) scale(3.4333333333333)"><rect width="6" height="6"/></g>
<g transform="translate(240,160) scale(3.4333333333333)"><rect width="6" height="6"/></g>
<g transform="translate(280,160) scale(3.4333333333333)"><rect width="6" height="6"/></g>
<g transform="translate(320,160) scale(3.4333333333333)"><rect width="6" height="6"/></g>
<g transform="translate(360,160) scale(3.4333333333333)"><rect width="6" height="6"/></g>
<g transform="translate(400,160) scale(3.4333333333333)"><rect width="6" height="6"/></g>
<g transform="translate(440,160) scale(3.4333333333333)"><rect width="6" height="6"/></g>
<g transform="translate(480,160) scale(3.4333333333333)"><rect width="6" height="6"/></g>
<g transform="translate(520,160) scale(3.4333333333333)"><rect width="6" height="6"/></g>
<g transform="translate(560,160) scale(3.4333333333333)"><rect width="6" height="6"/></g>
<g transform="translate(600,160) scale(3.4333333333333)"><rect width="6" height="6"/></g>
<g transform="translate(640,160) scale(3.4333333333333)"><rect width="6" height="6"/></g>
<g transform="translate(680,160) scale(3.4333333333333)"><rect width="6" height="6"/></g>
<g transform="translate(720,160) scale(3.4333333333333)"><rect width="6" height="6"/></g>
<g transform="translate(760,160) scale(3.4333333333333)"><rect width="6" height="6"/></g>
<g transform="translate(200,180) scale(3.4333333333333)"><rect width="6" height="6"/></g>
<g transform="translate(240,180) scale(3.4333333333333)"><rect width="6" height="6"/></g>
<g transform="translate(360,180) scale(3.4333333333333)"><rect width="6" height="6"/></g>
<g transform="translate(380,180) scale(3.4333333333333)"><rect width="6" height="6"/></g>
<g transform="translate(400,180) scale(3.4333333333333)"><rect width="6" height="6"/></g>
<g transform="translate(440,180) scale(3.4333333333333)"><rect width="6" height="6"/></g>
<g transform="translate(520,180) scale(3.4333333333333)"><rect width="6" height="6"/></g>
<g transform="translate(540,180) scale(3.4333333333333)"><rect width="6" height="6"/></g>
<g transform="translate(580,180) scale(3.4333333333333)"><rect width="6" height="6"/></g>
<g transform="translate(600,180) scale(3.4333333333333)"><rect width="6" height="6"/></g>
<g transform="translate(620,180) scale(3.4333333333333)"><rect width="6" height="6"/></g>
<g transform="translate(660,180) scale(3.4333333333333)"><rect width="6" height="6"/></g>
<g transform="translate(680,180) scale(3.4333333333333)"><rect width="6" height="6"/></g>
<g transform="translate(740,180) scale(3.4333333333333)"><rect width="6" height="6"/></g>
<g transform="translate(760,180) scale(3.4333333333333)"><rect width="6" height="6"/></g>
<g transform="translate(80,200) scale(3.4333333333333)"><rect width="6" height="6"/></g>
<g transform="translate(100,200) scale(3.4333333333333)"><rect width="6" height="6"/></g>
<g transform="translate(120,200) scale(3.4333333333333)"><rect width="6" height="6"/></g>
<g transform="translate(160,200) scale(3.4333333333333)"><rect width="6" height="6"/></g>
<g transform="translate(200,200) scale(3.4333333333333)"><rect width="6" height="6"/></g>
<g transform="translate(280,200) scale(3.4333333333333)"><rect width="6" height="6"/></g>
<g transform="translate(300,200) scale(3.4333333333333)"><rect width="6" height="6"/></g>
<g transform="translate(320,200) scale(3.4333333333333)"><rect width="6" height="6"/></g>
<g transform="translate(360,200) scale(3.4333333333333)"><rect width="6" height="6"/></g>
<g transform="translate(380,200) scale(3.4333333333333)"><rect width="6" height="6"/></g>
<g transform="translate(400,200) scale(3.4333333333333)"><rect width="6" height="6"/></g>
<g transform="translate(440,200) scale(3.4333333333333)"><rect width="6" height="6"/></g>
<g transform="translate(460,200) scale(3.4333333333333)"><rect width="6" height="6"/></g>
<g transform="translate(480,200) scale(3.4333333333333)"><rect width="6" height="6"/></g>
<g transform="translate(500,200) scale(3.4333333333333)"><rect width="6" height="6"/></g>
<g transform="translate(520,200) scale(3.4333333333333)"><rect width="6" height="6"/></g>
<g transform="translate(600,200) scale(3.4333333333333)"><rect width="6" height="6"/></g>
<g transform="translate(640,200) scale(3.4333333333333)"><rect width="6" height="6"/></g>
<g transform="translate(660,200) scale(3.4333333333333)"><rect width="6" height="6"/></g>
<g transform="translate(680,200) scale(3.4333333333333)"><rect width="6" height="6"/></g>
<g transform="translate(700,200) scale(3.4333333333333)"><rect width="6" height="6"/></g>
<g transform="translate(740,200) scale(3.4333333333333)"><rect width="6" height="6"/></g>
<g transform="translate(760,200) scale(3.4333333333333)"><rect width="6" height="6"/></g>
<g transform="translate(780,200) scale(3.4333333333333)"><rect width="6" height="6"/></g>
<g transform="translate(800,200) scale(3.4333333333333)"><rect width="6" height="6"/></g>
<g transform="translate(820,200) scale(3.4333333333333)"><rect width="6" height="6"/></g>
<g transform="translate(880,200) scale(3.4333333333333)"><rect width="6" height="6"/></g>
<g transform="translate(900,200) scale(3.4333333333333)"><rect width="6" height="6"/></g>
<g transform="translate(920,200) scale(3.4333333333333)"><rect width="6" height="6"/></g>
<g transform="translate(80,220) scale(3.4333333333333)"><rect width="6" height="6"/></g>
<g transform="translate(140,220) scale(3.4333333333333)"><rect width="6" height="6"/></g>
<g transform="translate(180,220) scale(3.4333333333333)"><rect width="6" height="6"/></g>
<g transform="translate(200,220) scale(3.4333333333333)"><rect width="6" height="6"/></g>
<g transform="translate(220,220) scale(3.4333333333333)"><rect width="6" height="6"/></g>
<g transform="translate(240,220) scale(3.4333333333333)"><rect width="6" height="6"/></g>
<g transform="translate(300,220) scale(3.4333333333333)"><rect width="6" height="6"/></g>
<g transform="translate(400,220) scale(3.4333333333333)"><rect width="6" height="6"/></g>
<g transform="translate(460,220) scale(3.4333333333333)"><rect width="6" height="6"/></g>
<g transform="translate(500,220) scale(3.4333333333333)"><rect width="6" height="6"/></g>
<g transform="translate(560,220) scale(3.4333333333333)"><rect width="6" height="6"/></g>
<g transform="translate(580,220) scale(3.4333333333333)"><rect width="6" height="6"/></g>
<g transform="translate(680,220) scale(3.4333333333333)"><rect width="6" height="6"/></g>
<g transform="translate(700,220) scale(3.4333333333333)"><rect width="6" height="6"/></g>
<g transform="translate(740,220) scale(3.4333333333333)"><rect width="6" height="6"/></g>
<g transform="translate(760,220) scale(3.4333333333333)"><rect width="6" height="6"/></g>
<g transform="translate(780,220) scale(3.4333333333333)"><rect width="6" height="6"/></g>
<g transform="translate(820,220) scale(3.4333333333333)"><rect width="6" height="6"/></g>
<g transform="translate(840,220) scale(3.4333333333333)"><rect width="6" height="6"/></g>
<g transform="translate(880,220) scale(3.4333333333333)"><rect width="6" height="6"/></g>
<g transform="translate(900,220) scale(3.4333333333333)"><rect width="6" height="6"/></g>
<g transform="translate(60,240) scale(3.4333333333333)"><rect width="6" height="6"/></g>
<g transform="translate(100,240) scale(3.4333333333333)"><rect width="6" height="6"/></g>
<g transform="translate(140,240) scale(3.4333333333333)"><rect width="6" height="6"/></g>
<g transform="translate(160,240) scale(3.4333333333333)"><rect width="6" height="6"/></g>
<g transform="translate(200,240) scale(3.4333333333333)"><rect width="6" height="6"/></g>
<g transform="translate(240,240) scale(3.4333333333333)"><rect width="6" height="6"/></g>
<g transform="translate(260,240) scale(3.4333333333333)"><rect width="6" height="6"/></g>
<g transform="translate(280,240) scale(3.4333333333333)"><rect width="6" height="6"/></g>
<g transform="translate(300,240) scale(3.4333333333333)"><rect width="6" height="6"/></g>
<g transform="translate(340,240) scale(3.4333333333333)"><rect width="6" height="6"/></g>
<g transform="translate(360,240) scale(3.4333333333333)"><rect width="6" height="6"/></g>
<g transform="translate(400,240) scale(3.4333333333333)"><rect width="6" height="6"/></g>
<g transform="translate(420,240) scale(3.4333333333333)"><rect width="6" height="6"/></g>
<g transform="translate(500,240) scale(3.4333333333333)"><rect width="6" height="6"/></g>
<g transform="translate(520,240) scale(3.4333333333333)"><rect width="6" height="6"/></g>
<g transform="translate(580,240) scale(3.4333333333333)"><rect width="6" height="6"/></g>
<g transform="translate(640,240) scale(3.4333333333333)"><rect width="6" height="6"/></g>
<g transform="translate(660,240) scale(3.4333333333333)"><rect width="6" height="6"/></g>
<g transform="translate(720,240) scale(3.4333333333333)"><rect width="6" height="6"/></g>
<g transform="translate(780,240) scale(3.4333333333333)"><rect width="6" height="6"/></g>
<g transform="translate(900,240) scale(3.4333333333333)"><rect width="6" height="6"/></g>
<g transform="translate(40,260) scale(3.4333333333333)"><rect width="6" height="6"/></g>
<g transform="translate(60,260) scale(3.4333333333333)"><rect width="6" height="6"/></g>
<g transform="translate(80,260) scale(3.4333333333333)"><rect width="6" height="6"/></g>
<g transform="translate(100,260) scale(3.4333333333333)"><rect width="6" height="6"/></g>
<g transform="translate(180,260) scale(3.4333333333333)"><rect width="6" height="6"/></g>
<g transform="translate(220,260) scale(3.4333333333333)"><rect width="6" height="6"/></g>
<g transform="translate(240,260) scale(3.4333333333333)"><rect width="6" height="6"/></g>
<g transform="translate(260,260) scale(3.4333333333333)"><rect width="6" height="6"/></g>
<g transform="translate(280,260) scale(3.4333333333333)"><rect width="6" height="6"/></g>
<g transform="translate(320,260) scale(3.4333333333333)"><rect width="6" height="6"/></g>
<g transform="translate(400,260) scale(3.4333333333333)"><rect width="6" height="6"/></g>
<g transform="translate(440,260) scale(3.4333333333333)"><rect width="6" height="6"/></g>
<g transform="translate(480,260) scale(3.4333333333333)"><rect width="6" height="6"/></g>
<g transform="translate(520,260) scale(3.4333333333333)"><rect width="6" height="6"/></g>
<g transform="translate(560,260) scale(3.4333333333333)"><rect width="6" height="6"/></g>
<g transform="translate(580,260) scale(3.4333333333333)"><rect width="6" height="6"/></g>
<g transform="translate(600,260) scale(3.4333333333333)"><rect width="6" height="6"/></g>
<g transform="translate(620,260) scale(3.4333333333333)"><rect width="6" height="6"/></g>
<g transform="translate(640,260) scale(3.4333333333333)"><rect width="6" height="6"/></g>
<g transform="translate(740,260) scale(3.4333333333333)"><rect width="6" height="6"/></g>
<g transform="translate(760,260) scale(3.4333333333333)"><rect width="6" height="6"/></g>
<g transform="translate(780,260) scale(3.4333333333333)"><rect width="6" height="6"/></g>
<g transform="translate(800,260) scale(3.4333333333333)"><rect width="6" height="6"/></g>
<g transform="translate(820,260) scale(3.4333333333333)"><rect width="6" height="6"/></g>
<g transform="translate(880,260) scale(3.4333333333333)"><rect width="6" height="6"/></g>
<g transform="translate(900,260) scale(3.4333333333333)"><rect width="6" height="6"/></g>
<g transform="translate(920,260) scale(3.4333333333333)"><rect width="6" height="6"/></g>
<g transform="translate(40,280) scale(3.4333333333333)"><rect width="6" height="6"/></g>
<g transform="translate(80,280) scale(3.4333333333333)"><rect width="6" height="6"/></g>
<g transform="translate(100,280) scale(3.4333333333333)"><rect width="6" height="6"/></g>
<g transform="translate(140,280) scale(3.4333333333333)"><rect width="6" height="6"/></g>
<g transform="translate(160,280) scale(3.4333333333333)"><rect width="6" height="6"/></g>
<g transform="translate(200,280) scale(3.4333333333333)"><rect width="6" height="6"/></g>
<g transform="translate(220,280) scale(3.4333333333333)"><rect width="6" height="6"/></g>
<g transform="translate(240,280) scale(3.4333333333333)"><rect width="6" height="6"/></g>
<g transform="translate(260,280) scale(3.4333333333333)"><rect width="6" height="6"/></g>
<g transform="translate(280,280) scale(3.4333333333333)"><rect width="6" height="6"/></g>
<g transform="translate(320,280) scale(3.4333333333333)"><rect width="6" height="6"/></g>
<g transform="translate(340,280) scale(3.4333333333333)"><rect width="6" height="6"/></g>
<g transform="translate(360,280) scale(3.4333333333333)"><rect width="6" height="6"/></g>
<g transform="translate(400,280) scale(3.4333333333333)"><rect width="6" height="6"/></g>
<g transform="translate(440,280) scale(3.4333333333333)"><rect width="6" height="6"/></g>
<g transform="translate(460,280) scale(3.4333333333333)"><rect width="6" height="6"/></g>
<g transform="translate(520,280) scale(3.4333333333333)"><rect width="6" height="6"/></g>
<g transform="translate(540,280) scale(3.4333333333333)"><rect width="6" height="6"/></g>
<g transform="translate(560,280) scale(3.4333333333333)"><rect width="6" height="6"/></g>
<g transform="translate(580,280) scale(3.4333333333333)"><rect width="6" height="6"/></g>
<g transform="translate(600,280) scale(3.4333333333333)"><rect width="6" height="6"/></g>
<g transform="translate(620,280) scale(3.4333333333333)"><rect width="6" height="6"/></g>
<g transform="translate(700,280) scale(3.4333333333333)"><rect width="6" height="6"/></g>
<g transform="translate(740,280) scale(3.4333333333333)"><rect width="6" height="6"/></g>
<g transform="translate(760,280) scale(3.4333333333333)"><rect width="6" height="6"/></g>
<g transform="translate(780,280) scale(3.4333333333333)"><rect width="6" height="6"/></g>
<g transform="translate(800,280) scale(3.4333333333333)"><rect width="6" height="6"/></g>
<g transform="translate(880,280) scale(3.4333333333333)"><rect width="6" height="6"/></g>
<g transform="translate(60,300) scale(3.4333333333333)"><rect width="6" height="6"/></g>
<g transform="translate(100,300) scale(3.4333333333333)"><rect width="6" height="6"/></g>
<g transform="translate(180,300) scale(3.4333333333333)"><rect width="6" height="6"/></g>
<g transform="translate(240,300) scale(3.4333333333333)"><rect width="6" height="6"/></g>
<g transform="translate(320,300) scale(3.4333333333333)"><rect width="6" height="6"/></g>
<g transform="translate(340,300) scale(3.4333333333333)"><rect width="6" height="6"/></g>
<g transform="translate(400,300) scale(3.4333333333333)"><rect width="6" height="6"/></g>
<g transform="translate(460,300) scale(3.4333333333333)"><rect width="6" height="6"/></g>
<g transform="translate(480,300) scale(3.4333333333333)"><rect width="6" height="6"/></g>
<g transform="translate(600,300) scale(3.4333333333333)"><rect width="6" height="6"/></g>
<g transform="translate(620,300) scale(3.4333333333333)"><rect width="6" height="6"/></g>
<g transform="translate(640,300) scale(3.4333333333333)"><rect width="6" height="6"/></g>
<g transform="translate(720,300) scale(3.4333333333333)"><rect width="6" height="6"/></g>
<g transform="translate(740,300) scale(3.4333333333333)"><rect width="6" height="6"/></g>
<g transform="translate(760,300) scale(3.4333333333333)"><rect width="6" height="6"/></g>
<g transform="translate(860,300) scale(3.4333333333333)"><rect width="6" height="6"/></g>
<g transform="translate(900,300) scale(3.4333333333333)"><rect width="6" height="6"/></g>
<g transform="translate(40,320) scale(3.4333333333333)"><rect width="6" height="6"/></g>
<g transform="translate(120,320) scale(3.4333333333333)"><rect width="6" height="6"/></g>
<g transform="translate(160,320) scale(3.4333333333333)"><rect width="6" height="6"/></g>
<g transform="translate(180,320) scale(3.4333333333333)"><rect width="6" height="6"/></g>
<g transform="translate(220,320) scale(3.4333333333333)"><rect width="6" height="6"/></g>
<g transform="translate(320,320) scale(3.4333333333333)"><rect width="6" height="6"/></g>
<g transform="translate(340,320) scale(3.4333333333333)"><rect width="6" height="6"/></g>
<g transform="translate(360,320) scale(3.4333333333333)"><rect width="6" height="6"/></g>
<g transform="translate(380,320) scale(3.4333333333333)"><rect width="6" height="6"/></g>
<g transform="translate(440,320) scale(3.4333333333333)"><rect width="6" height="6"/></g>
<g transform="translate(500,320) scale(3.4333333333333)"><rect width="6" height="6"/></g>
<g transform="translate(540,320) scale(3.4333333333333)"><rect width="6" height="6"/></g>
<g transform="translate(560,320) scale(3.4333333333333)"><rect width="6" height="6"/></g>
<g transform="translate(580,320) scale(3.4333333333333)"><rect width="6" height="6"/></g>
<g transform="translate(620,320) scale(3.4333333333333)"><rect width="6" height="6"/></g>
<g transform="translate(640,320) scale(3.4333333333333)"><rect width="6" height="6"/></g>
<g transform="translate(680,320) scale(3.4333333333333)"><rect width="6" height="6"/></g>
<g transform="translate(760,320) scale(3.4333333333333)"><rect width="6" height="6"/></g>
<g transform="translate(780,320) scale(3.4333333333333)"><rect width="6" height="6"/></g>
<g transform="translate(800,320) scale(3.4333333333333)"><rect width="6" height="6"/></g>
<g transform="translate(820,320) scale(3.4333333333333)"><rect width="6" height="6"/></g>
<g transform="translate(40,340) scale(3.4333333333333)"><rect width="6" height="6"/></g>
<g transform="translate(140,340) scale(3.4333333333333)"><rect width="6" height="6"/></g>
<g transform="translate(220,340) scale(3.4333333333333)"><rect width="6" height="6"/></g>
<g transform="translate(260,340) scale(3.4333333333333)"><rect width="6" height="6"/></g>
<g transform="translate(280,340) scale(3.4333333333333)"><rect width="6" height="6"/></g>
<g transform="translate(340,340) scale(3.4333333333333)"><rect width="6" height="6"/></g>
<g transform="translate(360,340) scale(3.4333333333333)"><rect width="6" height="6"/></g>
<g transform="translate(380,340) scale(3.4333333333333)"><rect width="6" height="6"/></g>
<g transform="translate(440,340) scale(3.4333333333333)"><rect width="6" height="6"/></g>
<g transform="translate(540,340) scale(3.4333333333333)"><rect width="6" height="6"/></g>
<g transform="translate(560,340) scale(3.4333333333333)"><rect width="6" height="6"/></g>
<g transform="translate(640,340) scale(3.4333333333333)"><rect width="6" height="6"/></g>
<g transform="translate(660,340) scale(3.4333333333333)"><rect width="6" height="6"/></g>
<g transform="translate(700,340) scale(3.4333333333333)"><rect width="6" height="6"/></g>
<g transform="translate(720,340) scale(3.4333333333333)"><rect width="6" height="6"/></g>
<g transform="translate(780,340) scale(3.4333333333333)"><rect width="6" height="6"/></g>
<g transform="translate(80,360) scale(3.4333333333333)"><rect width="6" height="6"/></g>
<g transform="translate(100,360) scale(3.4333333333333)"><rect width="6" height="6"/></g>
<g transform="translate(120,360) scale(3.4333333333333)"><rect width="6" height="6"/></g>
<g transform="translate(160,360) scale(3.4333333333333)"><rect width="6" height="6"/></g>
<g transform="translate(200,360) scale(3.4333333333333)"><rect width="6" height="6"/></g>
<g transform="translate(220,360) scale(3.4333333333333)"><rect width="6" height="6"/></g>
<g transform="translate(300,360) scale(3.4333333333333)"><rect width="6" height="6"/></g>
<g transform="translate(380,360) scale(3.4333333333333)"><rect width="6" height="6"/></g>
<g transform="translate(400,360) scale(3.4333333333333)"><rect width="6" height="6"/></g>
<g transform="translate(420,360) scale(3.4333333333333)"><rect width="6" height="6"/></g>
<g transform="translate(440,360) scale(3.4333333333333)"><rect width="6" height="6"/></g>
<g transform="translate(460,360) scale(3.4333333333333)"><rect width="6" height="6"/></g>
<g transform="translate(480,360) scale(3.4333333333333)"><rect width="6" height="6"/></g>
<g transform="translate(540,360) scale(3.4333333333333)"><rect width="6" height="6"/></g>
<g transform="translate(580,360) scale(3.4333333333333)"><rect width="6" height="6"/></g>
<g transform="translate(640,360) scale(3.4333333333333)"><rect width="6" height="6"/></g>
<g transform="translate(680,360) scale(3.4333333333333)"><rect width="6" height="6"/></g>
<g transform="translate(700,360) scale(3.4333333333333)"><rect width="6" height="6"/></g>
<g transform="translate(740,360) scale(3.4333333333333)"><rect width="6" height="6"/></g>
<g transform="translate(760,360) scale(3.4333333333333)"><rect width="6" height="6"/></g>
<g transform="translate(780,360) scale(3.4333333333333)"><rect width="6" height="6"/></g>
<g transform="translate(880,360) scale(3.4333333333333)"><rect width="6" height="6"/></g>
<g transform="translate(920,360) scale(3.4333333333333)"><rect width="6" height="6"/></g>
<g transform="translate(60,380) scale(3.4333333333333)"><rect width="6" height="6"/></g>
<g transform="translate(100,380) scale(3.4333333333333)"><rect width="6" height="6"/></g>
<g transform="translate(140,380) scale(3.4333333333333)"><rect width="6" height="6"/></g>
<g transform="translate(180,380) scale(3.4333333333333)"><rect width="6" height="6"/></g>
<g transform="translate(240,380) scale(3.4333333333333)"><rect width="6" height="6"/></g>
<g transform="translate(260,380) scale(3.4333333333333)"><rect width="6" height="6"/></g>
<g transform="translate(280,380) scale(3.4333333333333)"><rect width="6" height="6"/></g>
<g transform="translate(300,380) scale(3.4333333333333)"><rect width="6" height="6"/></g>
<g transform="translate(360,380) scale(3.4333333333333)"><rect width="6" height="6"/></g>
<g transform="translate(380,380) scale(3.4333333333333)"><rect width="6" height="6"/></g>
<g transform="translate(460,380) scale(3.4333333333333)"><rect width="6" height="6"/></g>
<g transform="translate(500,380) scale(3.4333333333333)"><rect width="6" height="6"/></g>
<g transform="translate(520,380) scale(3.4333333333333)"><rect width="6" height="6"/></g>
<g transform="translate(600,380) scale(3.4333333333333)"><rect width="6" height="6"/></g>
<g transform="translate(640,380) scale(3.4333333333333)"><rect width="6" height="6"/></g>
<g transform="translate(680,380) scale(3.4333333333333)"><rect width="6" height="6"/></g>
<g transform="translate(720,380) scale(3.4333333333333)"><rect width="6" height="6"/></g>
<g transform="translate(740,380) scale(3.4333333333333)"><rect width="6" height="6"/></g>
<g transform="translate(780,380) scale(3.4333333333333)"><rect width="6" height="6"/></g>
<g transform="translate(900,380) scale(3.4333333333333)"><rect width="6" height="6"/></g>
<g transform="translate(40,400) scale(3.4333333333333)"><rect width="6" height="6"/></g>
<g transform="translate(100,400) scale(3.4333333333333)"><rect width="6" height="6"/></g>
<g transform="translate(120,400) scale(3.4333333333333)"><rect width="6" height="6"/></g>
<g transform="translate(140,400) scale(3.4333333333333)"><rect width="6" height="6"/></g>
<g transform="translate(160,400) scale(3.4333333333333)"><rect width="6" height="6"/></g>
<g transform="translate(200,400) scale(3.4333333333333)"><rect width="6" height="6"/></g>
<g transform="translate(240,400) scale(3.4333333333333)"><rect width="6" height="6"/></g>
<g transform="translate(260,400) scale(3.4333333333333)"><rect width="6" height="6"/></g>
<g transform="translate(360,400) scale(3.4333333333333)"><rect width="6" height="6"/></g>
<g transform="translate(380,400) scale(3.4333333333333)"><rect width="6" height="6"/></g>
<g transform="translate(460,400) scale(3.4333333333333)"><rect width="6" height="6"/></g>
<g transform="translate(480,400) scale(3.4333333333333)"><rect width="6" height="6"/></g>
<g transform="translate(500,400) scale(3.4333333333333)"><rect width="6" height="6"/></g>
<g transform="translate(520,400) scale(3.4333333333333)"><rect width="6" height="6"/></g>
<g transform="translate(560,400) scale(3.4333333333333)"><rect width="6" height="6"/></g>
<g transform="translate(580,400) scale(3.4333333333333)"><rect width="6" height="6"/></g>
<g transform="translate(640,400) scale(3.4333333333333)"><rect width="6" height="6"/></g>
<g transform="translate(660,400) scale(3.4333333333333)"><rect width="6" height="6"/></g>
<g transform="translate(680,400) scale(3.4333333333333)"><rect width="6" height="6"/></g>
<g transform="translate(780,400) scale(3.4333333333333)"><rect width="6" height="6"/></g>
<g transform="translate(820,400) scale(3.4333333333333)"><rect width="6" height="6"/></g>
<g transform="translate(840,400) scale(3.4333333333333)"><rect width="6" height="6"/></g>
<g transform="translate(880,400) scale(3.4333333333333)"><rect width="6" height="6"/></g>
<g transform="translate(900,400) scale(3.4333333333333)"><rect width="6" height="6"/></g>
<g transform="translate(60,420) scale(3.4333333333333)"><rect width="6" height="6"/></g>
<g transform="translate(80,420) scale(3.4333333333333)"><rect width="6" height="6"/></g>
<g transform="translate(140,420) scale(3.4333333333333)"><rect width="6" height="6"/></g>
<g transform="translate(260,420) scale(3.4333333333333)"><rect width="6" height="6"/></g>
<g transform="translate(340,420) scale(3.4333333333333)"><rect width="6" height="6"/></g>
<g transform="translate(420,420) scale(3.4333333333333)"><rect width="6" height="6"/></g>
<g transform="translate(480,420) scale(3.4333333333333)"><rect width="6" height="6"/></g>
<g transform="translate(500,420) scale(3.4333333333333)"><rect width="6" height="6"/></g>
<g transform="translate(580,420) scale(3.4333333333333)"><rect width="6" height="6"/></g>
<g transform="translate(600,420) scale(3.4333333333333)"><rect width="6" height="6"/></g>
<g transform="translate(620,420) scale(3.4333333333333)"><rect width="6" height="6"/></g>
<g transform="translate(660,420) scale(3.4333333333333)"><rect width="6" height="6"/></g>
<g transform="translate(740,420) scale(3.4333333333333)"><rect width="6" height="6"/></g>
<g transform="translate(800,420) scale(3.4333333333333)"><rect width="6" height="6"/></g>
<g transform="translate(860,420) scale(3.4333333333333)"><rect width="6" height="6"/></g>
<g transform="translate(40,440) scale(3.4333333333333)"><rect width="6" height="6"/></g>
<g transform="translate(60,440) scale(3.4333333333333)"><rect width="6" height="6"/></g>
<g transform="translate(120,440) scale(3.4333333333333)"><rect width="6" height="6"/></g>
<g transform="translate(140,440) scale(3.4333333333333)"><rect width="6" height="6"/></g>
<g transform="translate(160,440) scale(3.4333333333333)"><rect width="6" height="6"/></g>
<g transform="translate(180,440) scale(3.4333333333333)"><rect width="6" height="6"/></g>
<g transform="translate(200,440) scale(3.4333333333333)"><rect width="6" height="6"/></g>
<g transform="translate(220,440) scale(3.4333333333333)"><rect width="6" height="6"/></g>
<g transform="translate(240,440) scale(3.4333333333333)"><rect width="6" height="6"/></g>
<g transform="translate(300,440) scale(3.4333333333333)"><rect width="6" height="6"/></g>
<g transform="translate(340,440) scale(3.4333333333333)"><rect width="6" height="6"/></g>
<g transform="translate(360,440) scale(3.4333333333333)"><rect width="6" height="6"/></g>
<g transform="translate(400,440) scale(3.4333333333333)"><rect width="6" height="6"/></g>
<g transform="translate(420,440) scale(3.4333333333333)"><rect width="6" height="6"/></g>
<g transform="translate(440,440) scale(3.4333333333333)"><rect width="6" height="6"/></g>
<g transform="translate(460,440) scale(3.4333333333333)"><rect width="6" height="6"/></g>
<g transform="translate(480,440) scale(3.4333333333333)"><rect width="6" height="6"/></g>
<g transform="translate(500,440) scale(3.4333333333333)"><rect width="6" height="6"/></g>
<g transform="translate(520,440) scale(3.4333333333333)"><rect width="6" height="6"/></g>
<g transform="translate(580,440) scale(3.4333333333333)"><rect width="6" height="6"/></g>
<g transform="translate(600,440) scale(3.4333333333333)"><rect width="6" height="6"/></g>
<g transform="translate(660,440) scale(3.4333333333333)"><rect width="6" height="6"/></g>
<g transform="translate(680,440) scale(3.4333333333333)"><rect width="6" height="6"/></g>
<g transform="translate(720,440) scale(3.4333333333333)"><rect width="6" height="6"/></g>
<g transform="translate(760,440) scale(3.4333333333333)"><rect width="6" height="6"/></g>
<g transform="translate(780,440) scale(3.4333333333333)"><rect width="6" height="6"/></g>
<g transform="translate(800,440) scale(3.4333333333333)"><rect width="6" height="6"/></g>
<g transform="translate(820,440) scale(3.4333333333333)"><rect width="6" height="6"/></g>
<g transform="translate(840,440) scale(3.4333333333333)"><rect width="6" height="6"/></g>
<g transform="translate(860,440) scale(3.4333333333333)"><rect width="6" height="6"/></g>
<g transform="translate(880,440) scale(3.4333333333333)"><rect width="6" height="6"/></g>
<g transform="translate(920,440) scale(3.4333333333333)"><rect width="6" height="6"/></g>
<g transform="translate(60,460) scale(3.4333333333333)"><rect width="6" height="6"/></g>
<g transform="translate(80,460) scale(3.4333333333333)"><rect width="6" height="6"/></g>
<g transform="translate(120,460) scale(3.4333333333333)"><rect width="6" height="6"/></g>
<g transform="translate(200,460) scale(3.4333333333333)"><rect width="6" height="6"/></g>
<g transform="translate(220,460) scale(3.4333333333333)"><rect width="6" height="6"/></g>
<g transform="translate(280,460) scale(3.4333333333333)"><rect width="6" height="6"/></g>
<g transform="translate(360,460) scale(3.4333333333333)"><rect width="6" height="6"/></g>
<g transform="translate(400,460) scale(3.4333333333333)"><rect width="6" height="6"/></g>
<g transform="translate(440,460) scale(3.4333333333333)"><rect width="6" height="6"/></g>
<g transform="translate(520,460) scale(3.4333333333333)"><rect width="6" height="6"/></g>
<g transform="translate(560,460) scale(3.4333333333333)"><rect width="6" height="6"/></g>
<g transform="translate(620,460) scale(3.4333333333333)"><rect width="6" height="6"/></g>
<g transform="translate(660,460) scale(3.4333333333333)"><rect width="6" height="6"/></g>
<g transform="translate(680,460) scale(3.4333333333333)"><rect width="6" height="6"/></g>
<g transform="translate(700,460) scale(3.4333333333333)"><rect width="6" height="6"/></g>
<g transform="translate(740,460) scale(3.4333333333333)"><rect width="6" height="6"/></g>
<g transform="translate(760,460) scale(3.4333333333333)"><rect width="6" height="6"/></g>
<g transform="translate(840,460) scale(3.4333333333333)"><rect width="6" height="6"/></g>
<g transform="translate(880,460) scale(3.4333333333333)"><rect width="6" height="6"/></g>
<g transform="translate(900,460) scale(3.4333333333333)"><rect width="6" height="6"/></g>
<g transform="translate(920,460) scale(3.4333333333333)"><rect width="6" height="6"/></g>
<g transform="translate(40,480) scale(3.4333333333333)"><rect width="6" height="6"/></g>
<g transform="translate(80,480) scale(3.4333333333333)"><rect width="6" height="6"/></g>
<g transform="translate(100,480) scale(3.4333333333333)"><rect width="6" height="6"/></g>
<g transform="translate(120,480) scale(3.4333333333333)"><rect width="6" height="6"/></g>
<g transform="translate(160,480) scale(3.4333333333333)"><rect width="6" height="6"/></g>
<g transform="translate(200,480) scale(3.4333333333333)"><rect width="6" height="6"/></g>
<g transform="translate(220,480) scale(3.4333333333333)"><rect width="6" height="6"/></g>
<g transform="translate(260,480) scale(3.4333333333333)"><rect width="6" height="6"/></g>
<g transform="translate(280,480) scale(3.4333333333333)"><rect width="6" height="6"/></g>
<g transform="translate(300,480) scale(3.4333333333333)"><rect width="6" height="6"/></g>
<g transform="translate(340,480) scale(3.4333333333333)"><rect width="6" height="6"/></g>
<g transform="translate(360,480) scale(3.4333333333333)"><rect width="6" height="6"/></g>
<g transform="translate(400,480) scale(3.4333333333333)"><rect width="6" height="6"/></g>
<g transform="translate(420,480) scale(3.4333333333333)"><rect width="6" height="6"/></g>
<g transform="translate(440,480) scale(3.4333333333333)"><rect width="6" height="6"/></g>
<g transform="translate(480,480) scale(3.4333333333333)"><rect width="6" height="6"/></g>
<g transform="translate(520,480) scale(3.4333333333333)"><rect width="6" height="6"/></g>
<g transform="translate(560,480) scale(3.4333333333333)"><rect width="6" height="6"/></g>
<g transform="translate(580,480) scale(3.4333333333333)"><rect width="6" height="6"/></g>
<g transform="translate(600,480) scale(3.4333333333333)"><rect width="6" height="6"/></g>
<g transform="translate(640,480) scale(3.4333333333333)"><rect width="6" height="6"/></g>
<g transform="translate(680,480) scale(3.4333333333333)"><rect width="6" height="6"/></g>
<g transform="translate(700,480) scale(3.4333333333333)"><rect width="6" height="6"/></g>
<g transform="translate(720,480) scale(3.4333333333333)"><rect width="6" height="6"/></g>
<g transform="translate(740,480) scale(3.4333333333333)"><rect width="6" height="6"/></g>
<g transform="translate(760,480) scale(3.4333333333333)"><rect width="6" height="6"/></g>
<g transform="translate(800,480) scale(3.4333333333333)"><rect width="6" height="6"/></g>
<g transform="translate(840,480) scale(3.4333333333333)"><rect width="6" height="6"/></g>
<g transform="translate(860,480) scale(3.4333333333333)"><rect width="6" height="6"/></g>
<g transform="translate(880,480) scale(3.4333333333333)"><rect width="6" height="6"/></g>
<g transform="translate(920,480) scale(3.4333333333333)"><rect width="6" height="6"/></g>
<g transform="translate(40,500) scale(3.4333333333333)"><rect width="6" height="6"/></g>
<g transform="translate(80,500) scale(3.4333333333333)"><rect width="6" height="6"/></g>
<g transform="translate(120,500) scale(3.4333333333333)"><rect width="6" height="6"/></g>
<g transform="translate(200,500) scale(3.4333333333333)"><rect width="6" height="6"/></g>
<g transform="translate(260,500) scale(3.4333333333333)"><rect width="6" height="6"/></g>
<g transform="translate(280,500) scale(3.4333333333333)"><rect width="6" height="6"/></g>
<g transform="translate(340,500) scale(3.4333333333333)"><rect width="6" height="6"/></g>
<g transform="translate(400,500) scale(3.4333333333333)"><rect width="6" height="6"/></g>
<g transform="translate(420,500) scale(3.4333333333333)"><rect width="6" height="6"/></g>
<g transform="translate(440,500) scale(3.4333333333333)"><rect width="6" height="6"/></g>
<g transform="translate(520,500) scale(3.4333333333333)"><rect width="6" height="6"/></g>
<g transform="translate(540,500) scale(3.4333333333333)"><rect width="6" height="6"/></g>
<g transform="translate(580,500) scale(3.4333333333333)"><rect width="6" height="6"/></g>
<g transform="translate(620,500) scale(3.4333333333333)"><rect width="6" height="6"/></g>
<g transform="translate(660,500) scale(3.4333333333333)"><rect width="6" height="6"/></g>
<g transform="translate(680,500) scale(3.4333333333333)"><rect width="6" height="6"/></g>
<g transform="translate(760,500) scale(3.4333333333333)"><rect width="6" height="6"/></g>
<g transform="translate(840,500) scale(3.4333333333333)"><rect width="6" height="6"/></g>
<g transform="translate(900,500) scale(3.4333333333333)"><rect width="6" height="6"/></g>
<g transform="translate(40,520) scale(3.4333333333333)"><rect width="6" height="6"/></g>
<g transform="translate(80,520) scale(3.4333333333333)"><rect width="6" height="6"/></g>
<g transform="translate(120,520) scale(3.4333333333333)"><rect width="6" height="6"/></g>
<g transform="translate(140,520) scale(3.4333333333333)"><rect width="6" height="6"/></g>
<g transform="translate(160,520) scale(3.4333333333333)"><rect width="6" height="6"/></g>
<g transform="translate(180,520) scale(3.4333333333333)"><rect width="6" height="6"/></g>
<g transform="translate(200,520) scale(3.4333333333333)"><rect width="6" height="6"/></g>
<g transform="translate(320,520) scale(3.4333333333333)"><rect width="6" height="6"/></g>
<g transform="translate(340,520) scale(3.4333333333333)"><rect width="6" height="6"/></g>
<g transform="translate(380,520) scale(3.4333333333333)"><rect width="6" height="6"/></g>
<g transform="translate(400,520) scale(3.4333333333333)"><rect width="6" height="6"/></g>
<g transform="translate(440,520) scale(3.4333333333333)"><rect width="6" height="6"/></g>
<g transform="translate(460,520) scale(3.4333333333333)"><rect width="6" height="6"/></g>
<g transform="translate(480,520) scale(3.4333333333333)"><rect width="6" height="6"/></g>
<g transform="translate(500,520) scale(3.4333333333333)"><rect width="6" height="6"/></g>
<g transform="translate(520,520) scale(3.4333333333333)"><rect width="6" height="6"/></g>
<g transform="translate(540,520) scale(3.4333333333333)"><rect width="6" height="6"/></g>
<g transform="translate(560,520) scale(3.4333333333333)"><rect width="6" height="6"/></g>
<g transform="translate(680,520) scale(3.4333333333333)"><rect width="6" height="6"/></g>
<g transform="translate(700,520) scale(3.4333333333333)"><rect width="6" height="6"/></g>
<g transform="translate(720,520) scale(3.4333333333333)"><rect width="6" height="6"/></g>
<g transform="translate(760,520) scale(3.4333333333333)"><rect width="6" height="6"/></g>
<g transform="translate(780,520) scale(3.4333333333333)"><rect width="6" height="6"/></g>
<g transform="translate(800,520) scale(3.4333333333333)"><rect width="6" height="6"/></g>
<g transform="translate(820,520) scale(3.4333333333333)"><rect width="6" height="6"/></g>
<g transform="translate(840,520) scale(3.4333333333333)"><rect width="6" height="6"/></g>
<g transform="translate(860,520) scale(3.4333333333333)"><rect width="6" height="6"/></g>
<g transform="translate(880,520) scale(3.4333333333333)"><rect width="6" height="6"/></g>
<g transform="translate(900,520) scale(3.4333333333333)"><rect width="6" height="6"/></g>
<g transform="translate(60,540) scale(3.4333333333333)"><rect width="6" height="6"/></g>
<g transform="translate(80,540) scale(3.4333333333333)"><rect width="6" height="6"/></g>
<g transform="translate(120,540) scale(3.4333333333333)"><rect width="6" height="6"/></g>
<g transform="translate(140,540) scale(3.4333333333333)"><rect width="6" height="6"/></g>
<g transform="translate(200,540) scale(3.4333333333333)"><rect width="6" height="6"/></g>
<g transform="translate(220,540) scale(3.4333333333333)"><rect width="6" height="6"/></g>
<g transform="translate(320,540) scale(3.4333333333333)"><rect width="6" height="6"/></g>
<g transform="translate(380,540) scale(3.4333333333333)"><rect width="6" height="6"/></g>
<g transform="translate(420,540) scale(3.4333333333333)"><rect width="6" height="6"/></g>
<g transform="translate(440,540) scale(3.4333333333333)"><rect width="6" height="6"/></g>
<g transform="translate(460,540) scale(3.4333333333333)"><rect width="6" height="6"/></g>
<g transform="translate(480,540) scale(3.4333333333333)"><rect width="6" height="6"/></g>
<g transform="translate(500,540) scale(3.4333333333333)"><rect width="6" height="6"/></g>
<g transform="translate(540,540) scale(3.4333333333333)"><rect width="6" height="6"/></g>
<g transform="translate(560,540) scale(3.4333333333333)"><rect width="6" height="6"/></g>
<g transform="translate(580,540) scale(3.4333333333333)"><rect width="6" height="6"/></g>
<g transform="translate(600,540) scale(3.4333333333333)"><rect width="6" height="6"/></g>
<g transform="translate(660,540) scale(3.4333333333333)"><rect width="6" height="6"/></g>
<g transform="translate(680,540) scale(3.4333333333333)"><rect width="6" height="6"/></g>
<g transform="translate(700,540) scale(3.4333333333333)"><rect width="6" height="6"/></g>
<g transform="translate(780,540) scale(3.4333333333333)"><rect width="6" height="6"/></g>
<g transform="translate(820,540) scale(3.4333333333333)"><rect width="6" height="6"/></g>
<g transform="translate(860,540) scale(3.4333333333333)"><rect width="6" height="6"/></g>
<g transform="translate(920,540) scale(3.4333333333333)"><rect width="6" height="6"/></g>
<g transform="translate(40,560) scale(3.4333333333333)"><rect width="6" height="6"/></g>
<g transform="translate(100,560) scale(3.4333333333333)"><rect width="6" height="6"/></g>
<g transform="translate(120,560) scale(3.4333333333333)"><rect width="6" height="6"/></g>
<g transform="translate(160,560) scale(3.4333333333333)"><rect width="6" height="6"/></g>
<g transform="translate(200,560) scale(3.4333333333333)"><rect width="6" height="6"/></g>
<g transform="translate(220,560) scale(3.4333333333333)"><rect width="6" height="6"/></g>
<g transform="translate(240,560) scale(3.4333333333333)"><rect width="6" height="6"/></g>
<g transform="translate(280,560) scale(3.4333333333333)"><rect width="6" height="6"/></g>
<g transform="translate(400,560) scale(3.4333333333333)"><rect width="6" height="6"/></g>
<g transform="translate(440,560) scale(3.4333333333333)"><rect width="6" height="6"/></g>
<g transform="translate(460,560) scale(3.4333333333333)"><rect width="6" height="6"/></g>
<g transform="translate(480,560) scale(3.4333333333333)"><rect width="6" height="6"/></g>
<g transform="translate(540,560) scale(3.4333333333333)"><rect width="6" height="6"/></g>
<g transform="translate(560,560) scale(3.4333333333333)"><rect width="6" height="6"/></g>
<g transform="translate(640,560) scale(3.4333333333333)"><rect width="6" height="6"/></g>
<g transform="translate(720,560) scale(3.4333333333333)"><rect width="6" height="6"/></g>
<g transform="translate(740,560) scale(3.4333333333333)"><rect width="6" height="6"/></g>
<g transform="translate(760,560) scale(3.4333333333333)"><rect width="6" height="6"/></g>
<g transform="translate(820,560) scale(3.4333333333333)"><rect width="6" height="6"/></g>
<g transform="translate(860,560) scale(3.4333333333333)"><rect width="6" height="6"/></g>
<g transform="translate(60,580) scale(3.4333333333333)"><rect width="6" height="6"/></g>
<g transform="translate(120,580) scale(3.4333333333333)"><rect width="6" height="6"/></g>
<g transform="translate(140,580) scale(3.4333333333333)"><rect width="6" height="6"/></g>
<g transform="translate(240,580) scale(3.4333333333333)"><rect width="6" height="6"/></g>
<g transform="translate(260,580) scale(3.4333333333333)"><rect width="6" height="6"/></g>
<g transform="translate(300,580) scale(3.4333333333333)"><rect width="6" height="6"/></g>
<g transform="translate(320,580) scale(3.4333333333333)"><rect width="6" height="6"/></g>
<g transform="translate(360,580) scale(3.4333333333333)"><rect width="6" height="6"/></g>
<g transform="translate(380,580) scale(3.4333333333333)"><rect width="6" height="6"/></g>
<g transform="translate(400,580) scale(3.4333333333333)"><rect width="6" height="6"/></g>
<g transform="translate(420,580) scale(3.4333333333333)"><rect width="6" height="6"/></g>
<g transform="translate(440,580) scale(3.4333333333333)"><rect width="6" height="6"/></g>
<g transform="translate(460,580) scale(3.4333333333333)"><rect width="6" height="6"/></g>
<g transform="translate(500,580) scale(3.4333333333333)"><rect width="6" height="6"/></g>
<g transform="translate(580,580) scale(3.4333333333333)"><rect width="6" height="6"/></g>
<g transform="translate(600,580) scale(3.4333333333333)"><rect width="6" height="6"/></g>
<g transform="translate(660,580) scale(3.4333333333333)"><rect width="6" height="6"/></g>
<g transform="translate(700,580) scale(3.4333333333333)"><rect width="6" height="6"/></g>
<g transform="translate(740,580) scale(3.4333333333333)"><rect width="6" height="6"/></g>
<g transform="translate(760,580) scale(3.4333333333333)"><rect width="6" height="6"/></g>
<g transform="translate(780,580) scale(3.4333333333333)"><rect width="6" height="6"/></g>
<g transform="translate(820,580) scale(3.4333333333333)"><rect width="6" height="6"/></g>
<g transform="translate(840,580) scale(3.4333333333333)"><rect width="6" height="6"/></g>
<g transform="translate(860,580) scale(3.4333333333333)"><rect width="6" height="6"/></g>
<g transform="translate(900,580) scale(3.4333333333333)"><rect width="6" height="6"/></g>
<g transform="translate(920,580) scale(3.4333333333333)"><rect width="6" height="6"/></g>
<g transform="translate(100,600) scale(3.4333333333333)"><rect width="6" height="6"/></g>
<g transform="translate(120,600) scale(3.4333333333333)"><rect width="6" height="6"/></g>
<g transform="translate(140,600) scale(3.4333333333333)"><rect width="6" height="6"/></g>
<g transform="translate(160,600) scale(3.4333333333333)"><rect width="6" height="6"/></g>
<g transform="translate(220,600) scale(3.4333333333333)"><rect width="6" height="6"/></g>
<g transform="translate(260,600) scale(3.4333333333333)"><rect width="6" height="6"/></g>
<g transform="translate(280,600) scale(3.4333333333333)"><rect width="6" height="6"/></g>
<g transform="translate(300,600) scale(3.4333333333333)"><rect width="6" height="6"/></g>
<g transform="translate(320,600) scale(3.4333333333333)"><rect width="6" height="6"/></g>
<g transform="translate(340,600) scale(3.4333333333333)"><rect width="6" height="6"/></g>
<g transform="translate(460,600) scale(3.4333333333333)"><rect width="6" height="6"/></g>
<g transform="translate(540,600) scale(3.4333333333333)"><rect width="6" height="6"/></g>
<g transform="translate(600,600) scale(3.4333333333333)"><rect width="6" height="6"/></g>
<g transform="translate(620,600) scale(3.4333333333333)"><rect width="6" height="6"/></g>
<g transform="translate(680,600) scale(3.4333333333333)"><rect width="6" height="6"/></g>
<g transform="translate(760,600) scale(3.4333333333333)"><rect width="6" height="6"/></g>
<g transform="translate(780,600) scale(3.4333333333333)"><rect width="6" height="6"/></g>
<g transform="translate(840,600) scale(3.4333333333333)"><rect width="6" height="6"/></g>
<g transform="translate(880,600) scale(3.4333333333333)"><rect width="6" height="6"/></g>
<g transform="translate(900,600) scale(3.4333333333333)"><rect width="6" height="6"/></g>
<g transform="translate(40,620) scale(3.4333333333333)"><rect width="6" height="6"/></g>
<g transform="translate(120,620) scale(3.4333333333333)"><rect width="6" height="6"/></g>
<g transform="translate(200,620) scale(3.4333333333333)"><rect width="6" height="6"/></g>
<g transform="translate(220,620) scale(3.4333333333333)"><rect width="6" height="6"/></g>
<g transform="translate(320,620) scale(3.4333333333333)"><rect width="6" height="6"/></g>
<g transform="translate(340,620) scale(3.4333333333333)"><rect width="6" height="6"/></g>
<g transform="translate(380,620) scale(3.4333333333333)"><rect width="6" height="6"/></g>
<g transform="translate(460,620) scale(3.4333333333333)"><rect width="6" height="6"/></g>
<g transform="translate(500,620) scale(3.4333333333333)"><rect width="6" height="6"/></g>
<g transform="translate(540,620) scale(3.4333333333333)"><rect width="6" height="6"/></g>
<g transform="translate(580,620) scale(3.4333333333333)"><rect width="6" height="6"/></g>
<g transform="translate(600,620) scale(3.4333333333333)"><rect width="6" height="6"/></g>
<g transform="translate(660,620) scale(3.4333333333333)"><rect width="6" height="6"/></g>
<g transform="translate(680,620) scale(3.4333333333333)"><rect width="6" height="6"/></g>
<g transform="translate(700,620) scale(3.4333333333333)"><rect width="6" height="6"/></g>
<g transform="translate(740,620) scale(3.4333333333333)"><rect width="6" height="6"/></g>
<g transform="translate(800,620) scale(3.4333333333333)"><rect width="6" height="6"/></g>
<g transform="translate(820,620) scale(3.4333333333333)"><rect width="6" height="6"/></g>
<g transform="translate(860,620) scale(3.4333333333333)"><rect width="6" height="6"/></g>
<g transform="translate(880,620) scale(3.4333333333333)"><rect width="6" height="6"/></g>
<g transform="translate(900,620) scale(3.4333333333333)"><rect width="6" height="6"/></g>
<g transform="translate(60,640) scale(3.4333333333333)"><rect width="6" height="6"/></g>
<g transform="translate(80,640) scale(3.4333333333333)"><rect width="6" height="6"/></g>
<g transform="translate(120,640) scale(3.4333333333333)"><rect width="6" height="6"/></g>
<g transform="translate(140,640) scale(3.4333333333333)"><rect width="6" height="6"/></g>
<g transform="translate(160,640) scale(3.4333333333333)"><rect width="6" height="6"/></g>
<g transform="translate(180,640) scale(3.4333333333333)"><rect width="6" height="6"/></g>
<g transform="translate(260,640) scale(3.4333333333333)"><rect width="6" height="6"/></g>
<g transform="translate(280,640) scale(3.4333333333333)"><rect width="6" height="6"/></g>
<g transform="translate(360,640) scale(3.4333333333333)"><rect width="6" height="6"/></g>
<g transform="translate(460,640) scale(3.4333333333333)"><rect width="6" height="6"/></g>
<g transform="translate(540,640) scale(3.4333333333333)"><rect width="6" height="6"/></g>
<g transform="translate(560,640) scale(3.4333333333333)"><rect width="6" height="6"/></g>
<g transform="translate(620,640) scale(3.4333333333333)"><rect width="6" height="6"/></g>
<g transform="translate(640,640) scale(3.4333333333333)"><rect width="6" height="6"/></g>
<g transform="translate(660,640) scale(3.4333333333333)"><rect width="6" height="6"/></g>
<g transform="translate(700,640) scale(3.4333333333333)"><rect width="6" height="6"/></g>
<g transform="translate(760,640) scale(3.4333333333333)"><rect width="6" height="6"/></g>
<g transform="translate(780,640) scale(3.4333333333333)"><rect width="6" height="6"/></g>
<g transform="translate(800,640) scale(3.4333333333333)"><rect width="6" height="6"/></g>
<g transform="translate(840,640) scale(3.4333333333333)"><rect width="6" height="6"/></g>
<g transform="translate(900,640) scale(3.4333333333333)"><rect width="6" height="6"/></g>
<g transform="translate(920,640) scale(3.4333333333333)"><rect width="6" height="6"/></g>
<g transform="translate(80,660) scale(3.4333333333333)"><rect width="6" height="6"/></g>
<g transform="translate(100,660) scale(3.4333333333333)"><rect width="6" height="6"/></g>
<g transform="translate(180,660) scale(3.4333333333333)"><rect width="6" height="6"/></g>
<g transform="translate(320,660) scale(3.4333333333333)"><rect width="6" height="6"/></g>
<g transform="translate(380,660) scale(3.4333333333333)"><rect width="6" height="6"/></g>
<g transform="translate(400,660) scale(3.4333333333333)"><rect width="6" height="6"/></g>
<g transform="translate(460,660) scale(3.4333333333333)"><rect width="6" height="6"/></g>
<g transform="translate(520,660) scale(3.4333333333333)"><rect width="6" height="6"/></g>
<g transform="translate(540,660) scale(3.4333333333333)"><rect width="6" height="6"/></g>
<g transform="translate(600,660) scale(3.4333333333333)"><rect width="6" height="6"/></g>
<g transform="translate(620,660) scale(3.4333333333333)"><rect width="6" height="6"/></g>
<g transform="translate(800,660) scale(3.4333333333333)"><rect width="6" height="6"/></g>
<g transform="translate(840,660) scale(3.4333333333333)"><rect width="6" height="6"/></g>
<g transform="translate(860,660) scale(3.4333333333333)"><rect width="6" height="6"/></g>
<g transform="translate(880,660) scale(3.4333333333333)"><rect width="6" height="6"/></g>
<g transform="translate(900,660) scale(3.4333333333333)"><rect width="6" height="6"/></g>
<g transform="translate(40,680) scale(3.4333333333333)"><rect width="6" height="6"/></g>
<g transform="translate(80,680) scale(3.4333333333333)"><rect width="6" height="6"/></g>
<g transform="translate(120,680) scale(3.4333333333333)"><rect width="6" height="6"/></g>
<g transform="translate(160,680) scale(3.4333333333333)"><rect width="6" height="6"/></g>
<g transform="translate(220,680) scale(3.4333333333333)"><rect width="6" height="6"/></g>
<g transform="translate(240,680) scale(3.4333333333333)"><rect width="6" height="6"/></g>
<g transform="translate(260,680) scale(3.4333333333333)"><rect width="6" height="6"/></g>
<g transform="translate(280,680) scale(3.4333333333333)"><rect width="6" height="6"/></g>
<g transform="translate(300,680) scale(3.4333333333333)"><rect width="6" height="6"/></g>
<g transform="translate(320,680) scale(3.4333333333333)"><rect width="6" height="6"/></g>
<g transform="translate(380,680) scale(3.4333333333333)"><rect width="6" height="6"/></g>
<g transform="translate(400,680) scale(3.4333333333333)"><rect width="6" height="6"/></g>
<g transform="translate(420,680) scale(3.4333333333333)"><rect width="6" height="6"/></g>
<g transform="translate(580,680) scale(3.4333333333333)"><rect width="6" height="6"/></g>
<g transform="translate(600,680) scale(3.4333333333333)"><rect width="6" height="6"/></g>
<g transform="translate(660,680) scale(3.4333333333333)"><rect width="6" height="6"/></g>
<g transform="translate(680,680) scale(3.4333333333333)"><rect width="6" height="6"/></g>
<g transform="translate(780,680) scale(3.4333333333333)"><rect width="6" height="6"/></g>
<g transform="translate(80,700) scale(3.4333333333333)"><rect width="6" height="6"/></g>
<g transform="translate(100,700) scale(3.4333333333333)"><rect width="6" height="6"/></g>
<g transform="translate(120,700) scale(3.4333333333333)"><rect width="6" height="6"/></g>
<g transform="translate(140,700) scale(3.4333333333333)"><rect width="6" height="6"/></g>
<g transform="translate(220,700) scale(3.4333333333333)"><rect width="6" height="6"/></g>
<g transform="translate(260,700) scale(3.4333333333333)"><rect width="6" height="6"/></g>
<g transform="translate(320,700) scale(3.4333333333333)"><rect width="6" height="6"/></g>
<g transform="translate(360,700) scale(3.4333333333333)"><rect width="6" height="6"/></g>
<g transform="translate(420,700) scale(3.4333333333333)"><rect width="6" height="6"/></g>
<g transform="translate(440,700) scale(3.4333333333333)"><rect width="6" height="6"/></g>
<g transform="translate(480,700) scale(3.4333333333333)"><rect width="6" height="6"/></g>
<g transform="translate(500,700) scale(3.4333333333333)"><rect width="6" height="6"/></g>
<g transform="translate(520,700) scale(3.4333333333333)"><rect width="6" height="6"/></g>
<g transform="translate(540,700) scale(3.4333333333333)"><rect width="6" height="6"/></g>
<g transform="translate(580,700) scale(3.4333333333333)"><rect width="6" height="6"/></g>
<g transform="translate(680,700) scale(3.4333333333333)"><rect width="6" height="6"/></g>
<g transform="translate(740,700) scale(3.4333333333333)"><rect width="6" height="6"/></g>
<g transform="translate(800,700) scale(3.4333333333333)"><rect width="6" height="6"/></g>
<g transform="translate(120,720) scale(3.4333333333333)"><rect width="6" height="6"/></g>
<g transform="translate(160,720) scale(3.4333333333333)"><rect width="6" height="6"/></g>
<g transform="translate(260,720) scale(3.4333333333333)"><rect width="6" height="6"/></g>
<g transform="translate(280,720) scale(3.4333333333333)"><rect width="6" height="6"/></g>
<g transform="translate(340,720) scale(3.4333333333333)"><rect width="6" height="6"/></g>
<g transform="translate(460,720) scale(3.4333333333333)"><rect width="6" height="6"/></g>
<g transform="translate(480,720) scale(3.4333333333333)"><rect width="6" height="6"/></g>
<g transform="translate(500,720) scale(3.4333333333333)"><rect width="6" height="6"/></g>
<g transform="translate(540,720) scale(3.4333333333333)"><rect width="6" height="6"/></g>
<g transform="translate(560,720) scale(3.4333333333333)"><rect width="6" height="6"/></g>
<g transform="translate(580,720) scale(3.4333333333333)"><rect width="6" height="6"/></g>
<g transform="translate(600,720) scale(3.4333333333333)"><rect width="6" height="6"/></g>
<g transform="translate(660,720) scale(3.4333333333333)"><rect width="6" height="6"/></g>
<g transform="translate(680,720) scale(3.4333333333333)"><rect width="6" height="6"/></g>
<g transform="translate(780,720) scale(3.4333333333333)"><rect width="6" height="6"/></g>
<g transform="translate(820,720) scale(3.4333333333333)"><rect width="6" height="6"/></g>
<g transform="translate(840,720) scale(3.4333333333333)"><rect width="6" height="6"/></g>
<g transform="translate(900,720) scale(3.4333333333333)"><rect width="6" height="6"/></g>
<g transform="translate(60,740) scale(3.4333333333333)"><rect width="6" height="6"/></g>
<g transform="translate(80,740) scale(3.4333333333333)"><rect width="6" height="6"/></g>
<g transform="translate(100,740) scale(3.4333333333333)"><rect width="6" height="6"/></g>
<g transform="translate(120,740) scale(3.4333333333333)"><rect width="6" height="6"/></g>
<g transform="translate(220,740) scale(3.4333333333333)"><rect width="6" height="6"/></g>
<g transform="translate(260,740) scale(3.4333333333333)"><rect width="6" height="6"/></g>
<g transform="translate(280,740) scale(3.4333333333333)"><rect width="6" height="6"/></g>
<g transform="translate(300,740) scale(3.4333333333333)"><rect width="6" height="6"/></g>
<g transform="translate(320,740) scale(3.4333333333333)"><rect width="6" height="6"/></g>
<g transform="translate(340,740) scale(3.4333333333333)"><rect width="6" height="6"/></g>
<g transform="translate(360,740) scale(3.4333333333333)"><rect width="6" height="6"/></g>
<g transform="translate(380,740) scale(3.4333333333333)"><rect width="6" height="6"/></g>
<g transform="translate(440,740) scale(3.4333333333333)"><rect width="6" height="6"/></g>
<g transform="translate(500,740) scale(3.4333333333333)"><rect width="6" height="6"/></g>
<g transform="translate(540,740) scale(3.4333333333333)"><rect width="6" height="6"/></g>
<g transform="translate(580,740) scale(3.4333333333333)"><rect width="6" height="6"/></g>
<g transform="translate(700,740) scale(3.4333333333333)"><rect width="6" height="6"/></g>
<g transform="translate(720,740) scale(3.4333333333333)"><rect width="6" height="6"/></g>
<g transform="translate(760,740) scale(3.4333333333333)"><rect width="6" height="6"/></g>
<g transform="translate(860,740) scale(3.4333333333333)"><rect width="6" height="6"/></g>
<g transform="translate(880,740) scale(3.4333333333333)"><rect width="6" height="6"/></g>
<g transform="translate(920,740) scale(3.4333333333333)"><rect width="6" height="6"/></g>
<g transform="translate(40,760) scale(3.4333333333333)"><rect width="6" height="6"/></g>
<g transform="translate(100,760) scale(3.4333333333333)"><rect width="6" height="6"/></g>
<g transform="translate(120,760) scale(3.4333333333333)"><rect width="6" height="6"/></g>
<g transform="translate(160,760) scale(3.4333333333333)"><rect width="6" height="6"/></g>
<g transform="translate(180,760) scale(3.4333333333333)"><rect width="6" height="6"/></g>
<g transform="translate(200,760) scale(3.4333333333333)"><rect width="6" height="6"/></g>
<g transform="translate(260,760) scale(3.4333333333333)"><rect width="6" height="6"/></g>
<g transform="translate(280,760) scale(3.4333333333333)"><rect width="6" height="6"/></g>
<g transform="translate(320,760) scale(3.4333333333333)"><rect width="6" height="6"/></g>
<g transform="translate(340,760) scale(3.4333333333333)"><rect width="6" height="6"/></g>
<g transform="translate(380,760) scale(3.4333333333333)"><rect width="6" height="6"/></g>
<g transform="translate(400,760) scale(3.4333333333333)"><rect width="6" height="6"/></g>
<g transform="translate(420,760) scale(3.4333333333333)"><rect width="6" height="6"/></g>
<g transform="translate(440,760) scale(3.4333333333333)"><rect width="6" height="6"/></g>
<g transform="translate(460,760) scale(3.4333333333333)"><rect width="6" height="6"/></g>
<g transform="translate(480,760) scale(3.4333333333333)"><rect width="6" height="6"/></g>
<g transform="translate(500,760) scale(3.4333333333333)"><rect width="6" height="6"/></g>
<g transform="translate(520,760) scale(3.4333333333333)"><rect width="6" height="6"/></g>
<g transform="translate(560,760) scale(3.4333333333333)"><rect width="6" height="6"/></g>
<g transform="translate(580,760) scale(3.4333333333333)"><rect width="6" height="6"/></g>
<g transform="translate(600,760) scale(3.4333333333333)"><rect width="6" height="6"/></g>
<g transform="translate(640,760) scale(3.4333333333333)"><rect width="6" height="6"/></g>
<g transform="translate(680,760) scale(3.4333333333333)"><rect width="6" height="6"/></g>
<g transform="translate(700,760) scale(3.4333333333333)"><rect width="6" height="6"/></g>
<g transform="translate(720,760) scale(3.4333333333333)"><rect width="6" height="6"/></g>
<g transform="translate(740,760) scale(3.4333333333333)"><rect width="6" height="6"/></g>
<g transform="translate(760,760) scale(3.4333333333333)"><rect width="6" height="6"/></g>
<g transform="translate(780,760) scale(3.4333333333333)"><rect width="6" height="6"/></g>
<g transform="translate(800,760) scale(3.4333333333333)"><rect width="6" height="6"/></g>
<g transform="translate(820,760) scale(3.4333333333333)"><rect width="6" height="6"/></g>
<g transform="translate(840,760) scale(3.4333333333333)"><rect width="6" height="6"/></g>
<g transform="translate(860,760) scale(3.4333333333333)"><rect width="6" height="6"/></g>
<g transform="translate(880,760) scale(3.4333333333333)"><rect width="6" height="6"/></g>
<g transform="translate(900,760) scale(3.4333333333333)"><rect width="6" height="6"/></g>
<g transform="translate(920,760) scale(3.4333333333333)"><rect width="6" height="6"/></g>
<g transform="translate(200,780) scale(3.4333333333333)"><rect width="6" height="6"/></g>
<g transform="translate(220,780) scale(3.4333333333333)"><rect width="6" height="6"/></g>
<g transform="translate(260,780) scale(3.4333333333333)"><rect width="6" height="6"/></g>
<g transform="translate(280,780) scale(3.4333333333333)"><rect width="6" height="6"/></g>
<g transform="translate(320,780) scale(3.4333333333333)"><rect width="6" height="6"/></g>
<g transform="translate(360,780) scale(3.4333333333333)"><rect width="6" height="6"/></g>
<g transform="translate(400,780) scale(3.4333333333333)"><rect width="6" height="6"/></g>
<g transform="translate(440,780) scale(3.4333333333333)"><rect width="6" height="6"/></g>
<g transform="translate(520,780) scale(3.4333333333333)"><rect width="6" height="6"/></g>
<g transform="translate(600,780) scale(3.4333333333333)"><rect width="6" height="6"/></g>
<g transform="translate(720,780) scale(3.4333333333333)"><rect width="6" height="6"/></g>
<g transform="translate(760,780) scale(3.4333333333333)"><rect width="6" height="6"/></g>
<g transform="translate(840,780) scale(3.4333333333333)"><rect width="6" height="6"/></g>
<g transform="translate(860,780) scale(3.4333333333333)"><rect width="6" height="6"/></g>
<g transform="translate(900,780) scale(3.4333333333333)"><rect width="6" height="6"/></g>
<g transform="translate(240,800) scale(3.4333333333333)"><rect width="6" height="6"/></g>
<g transform="translate(260,800) scale(3.4333333333333)"><rect width="6" height="6"/></g>
<g transform="translate(320,800) scale(3.4333333333333)"><rect width="6" height="6"/></g>
<g transform="translate(380,800) scale(3.4333333333333)"><rect width="6" height="6"/></g>
<g transform="translate(400,800) scale(3.4333333333333)"><rect width="6" height="6"/></g>
<g transform="translate(440,800) scale(3.4333333333333)"><rect width="6" height="6"/></g>
<g transform="translate(480,800) scale(3.4333333333333)"><rect width="6" height="6"/></g>
<g transform="translate(520,800) scale(3.4333333333333)"><rect width="6" height="6"/></g>
<g transform="translate(540,800) scale(3.4333333333333)"><rect width="6" height="6"/></g>
<g transform="translate(580,800) scale(3.4333333333333)"><rect width="6" height="6"/></g>
<g transform="translate(620,800) scale(3.4333333333333)"><rect width="6" height="6"/></g>
<g transform="translate(640,800) scale(3.4333333333333)"><rect width="6" height="6"/></g>
<g transform="translate(700,800) scale(3.4333333333333)"><rect width="6" height="6"/></g>
<g transform="translate(760,800) scale(3.4333333333333)"><rect width="6" height="6"/></g>
<g transform="translate(800,800) scale(3.4333333333333)"><rect width="6" height="6"/></g>
<g transform="translate(840,800) scale(3.4333333333333)"><rect width="6" height="6"/></g>
<g transform="translate(860,800) scale(3.4333333333333)"><rect width="6" height="6"/></g>
<g transform="translate(880,800) scale(3.4333333333333)"><rect width="6" height="6"/></g>
<g transform="translate(300,820) scale(3.4333333333333)"><rect width="6" height="6"/></g>
<g transform="translate(320,820) scale(3.4333333333333)"><rect width="6" height="6"/></g>
<g transform="translate(340,820) scale(3.4333333333333)"><rect width="6" height="6"/></g>
<g transform="translate(380,820) scale(3.4333333333333)"><rect width="6" height="6"/></g>
<g transform="translate(400,820) scale(3.4333333333333)"><rect width="6" height="6"/></g>
<g transform="translate(420,820) scale(3.4333333333333)"><rect width="6" height="6"/></g>
<g transform="translate(440,820) scale(3.4333333333333)"><rect width="6" height="6"/></g>
<g transform="translate(520,820) scale(3.4333333333333)"><rect width="6" height="6"/></g>
<g transform="translate(560,820) scale(3.4333333333333)"><rect width="6" height="6"/></g>
<g transform="translate(620,820) scale(3.4333333333333)"><rect width="6" height="6"/></g>
<g transform="translate(640,820) scale(3.4333333333333)"><rect width="6" height="6"/></g>
<g transform="translate(660,820) scale(3.4333333333333)"><rect width="6" height="6"/></g>
<g transform="translate(700,820) scale(3.4333333333333)"><rect width="6" height="6"/></g>
<g transform="translate(760,820) scale(3.4333333333333)"><rect width="6" height="6"/></g>
<g transform="translate(840,820) scale(3.4333333333333)"><rect width="6" height="6"/></g>
<g transform="translate(880,820) scale(3.4333333333333)"><rect width="6" height="6"/></g>
<g transform="translate(900,820) scale(3.4333333333333)"><rect width="6" height="6"/></g>
<g transform="translate(200,840) scale(3.4333333333333)"><rect width="6" height="6"/></g>
<g transform="translate(280,840) scale(3.4333333333333)"><rect width="6" height="6"/></g>
<g transform="translate(340,840) scale(3.4333333333333)"><rect width="6" height="6"/></g>
<g transform="translate(360,840) scale(3.4333333333333)"><rect width="6" height="6"/></g>
<g transform="translate(440,840) scale(3.4333333333333)"><rect width="6" height="6"/></g>
<g transform="translate(460,840) scale(3.4333333333333)"><rect width="6" height="6"/></g>
<g transform="translate(480,840) scale(3.4333333333333)"><rect width="6" height="6"/></g>
<g transform="translate(500,840) scale(3.4333333333333)"><rect width="6" height="6"/></g>
<g transform="translate(520,840) scale(3.4333333333333)"><rect width="6" height="6"/></g>
<g transform="translate(560,840) scale(3.4333333333333)"><rect width="6" height="6"/></g>
<g transform="translate(580,840) scale(3.4333333333333)"><rect width="6" height="6"/></g>
<g transform="translate(600,840) scale(3.4333333333333)"><rect width="6" height="6"/></g>
<g transform="translate(620,840) scale(3.4333333333333)"><rect width="6" height="6"/></g>
<g transform="translate(640,840) scale(3.4333333333333)"><rect width="6" height="6"/></g>
<g transform="translate(680,840) scale(3.4333333333333)"><rect width="6" height="6"/></g>
<g transform="translate(700,840) scale(3.4333333333333)"><rect width="6" height="6"/></g>
<g transform="translate(720,840) scale(3.4333333333333)"><rect width="6" height="6"/></g>
<g transform="translate(740,840) scale(3.4333333333333)"><rect width="6" height="6"/></g>
<g transform="translate(760,840) scale(3.4333333333333)"><rect width="6" height="6"/></g>
<g transform="translate(780,840) scale(3.4333333333333)"><rect width="6" height="6"/></g>
<g transform="translate(800,840) scale(3.4333333333333)"><rect width="6" height="6"/></g>
<g transform="translate(820,840) scale(3.4333333333333)"><rect width="6" height="6"/></g>
<g transform="translate(840,840) scale(3.4333333333333)"><rect width="6" height="6"/></g>
<g transform="translate(880,840) scale(3.4333333333333)"><rect width="6" height="6"/></g>
<g transform="translate(900,840) scale(3.4333333333333)"><rect width="6" height="6"/></g>
<g transform="translate(920,840) scale(3.4333333333333)"><rect width="6" height="6"/></g>
<g transform="translate(200,860) scale(3.4333333333333)"><rect width="6" height="6"/></g>
<g transform="translate(220,860) scale(3.4333333333333)"><rect width="6" height="6"/></g>
<g transform="translate(240,860) scale(3.4333333333333)"><rect width="6" height="6"/></g>
<g transform="translate(320,860) scale(3.4333333333333)"><rect width="6" height="6"/></g>
<g transform="translate(360,860) scale(3.4333333333333)"><rect width="6" height="6"/></g>
<g transform="translate(380,860) scale(3.4333333333333)"><rect width="6" height="6"/></g>
<g transform="translate(400,860) scale(3.4333333333333)"><rect width="6" height="6"/></g>
<g transform="translate(420,860) scale(3.4333333333333)"><rect width="6" height="6"/></g>
<g transform="translate(440,860) scale(3.4333333333333)"><rect width="6" height="6"/></g>
<g transform="translate(460,860) scale(3.4333333333333)"><rect width="6" height="6"/></g>
<g transform="translate(480,860) scale(3.4333333333333)"><rect width="6" height="6"/></g>
<g transform="translate(520,860) scale(3.4333333333333)"><rect width="6" height="6"/></g>
<g transform="translate(540,860) scale(3.4333333333333)"><rect width="6" height="6"/></g>
<g transform="translate(560,860) scale(3.4333333333333)"><rect width="6" height="6"/></g>
<g transform="translate(580,860) scale(3.4333333333333)"><rect width="6" height="6"/></g>
<g transform="translate(680,860) scale(3.4333333333333)"><rect width="6" height="6"/></g>
<g transform="translate(700,860) scale(3.4333333333333)"><rect width="6" height="6"/></g>
<g transform="translate(760,860) scale(3.4333333333333)"><rect width="6" height="6"/></g>
<g transform="translate(780,860) scale(3.4333333333333)"><rect width="6" height="6"/></g>
<g transform="translate(800,860) scale(3.4333333333333)"><rect width="6" height="6"/></g>
<g transform="translate(820,860) scale(3.4333333333333)"><rect width="6" height="6"/></g>
<g transform="translate(200,880) scale(3.4333333333333)"><rect width="6" height="6"/></g>
<g transform="translate(280,880) scale(3.4333333333333)"><rect width="6" height="6"/></g>
<g transform="translate(360,880) scale(3.4333333333333)"><rect width="6" height="6"/></g>
<g transform="translate(400,880) scale(3.4333333333333)"><rect width="6" height="6"/></g>
<g transform="translate(420,880) scale(3.4333333333333)"><rect width="6" height="6"/></g>
<g transform="translate(440,880) scale(3.4333333333333)"><rect width="6" height="6"/></g>
<g transform="translate(600,880) scale(3.4333333333333)"><rect width="6" height="6"/></g>
<g transform="translate(620,880) scale(3.4333333333333)"><rect width="6" height="6"/></g>
<g transform="translate(640,880) scale(3.4333333333333)"><rect width="6" height="6"/></g>
<g transform="translate(660,880) scale(3.4333333333333)"><rect width="6" height="6"/></g>
<g transform="translate(700,880) scale(3.4333333333333)"><rect width="6" height="6"/></g>
<g transform="translate(740,880) scale(3.4333333333333)"><rect width="6" height="6"/></g>
<g transform="translate(800,880) scale(3.4333333333333)"><rect width="6" height="6"/></g>
<g transform="translate(860,880) scale(3.4333333333333)"><rect width="6" height="6"/></g>
<g transform="translate(880,880) scale(3.4333333333333)"><rect width="6" height="6"/></g>
<g transform="translate(220,900) scale(3.4333333333333)"><rect width="6" height="6"/></g>
<g transform="translate(260,900) scale(3.4333333333333)"><rect width="6" height="6"/></g>
<g transform="translate(280,900) scale(3.4333333333333)"><rect width="6" height="6"/></g>
<g transform="translate(360,900) scale(3.4333333333333)"><rect width="6" height="6"/></g>
<g transform="translate(380,900) scale(3.4333333333333)"><rect width="6" height="6"/></g>
<g transform="translate(440,900) scale(3.4333333333333)"><rect width="6" height="6"/></g>
<g transform="translate(460,900) scale(3.4333333333333)"><rect width="6" height="6"/></g>
<g transform="translate(480,900) scale(3.4333333333333)"><rect width="6" height="6"/></g>
<g transform="translate(500,900) scale(3.4333333333333)"><rect width="6" height="6"/></g>
<g transform="translate(520,900) scale(3.4333333333333)"><rect width="6" height="6"/></g>
<g transform="translate(560,900) scale(3.4333333333333)"><rect width="6" height="6"/></g>
<g transform="translate(580,900) scale(3.4333333333333)"><rect width="6" height="6"/></g>
<g transform="translate(620,900) scale(3.4333333333333)"><rect width="6" height="6"/></g>
<g transform="translate(640,900) scale(3.4333333333333)"><rect width="6" height="6"/></g>
<g transform="translate(660,900) scale(3.4333333333333)"><rect width="6" height="6"/></g>
<g transform="translate(680,900) scale(3.4333333333333)"><rect width="6" height="6"/></g>
<g transform="translate(760,900) scale(3.4333333333333)"><rect width="6" height="6"/></g>
<g transform="translate(780,900) scale(3.4333333333333)"><rect width="6" height="6"/></g>
<g transform="translate(800,900) scale(3.4333333333333)"><rect width="6" height="6"/></g>
<g transform="translate(820,900) scale(3.4333333333333)"><rect width="6" height="6"/></g>
<g transform="translate(840,900) scale(3.4333333333333)"><rect width="6" height="6"/></g>
<g transform="translate(860,900) scale(3.4333333333333)"><rect width="6" height="6"/></g>
<g transform="translate(880,900) scale(3.4333333333333)"><rect width="6" height="6"/></g>
<g transform="translate(920,900) scale(3.4333333333333)"><rect width="6" height="6"/></g>
<g transform="translate(260,920) scale(3.4333333333333)"><rect width="6" height="6"/></g>
<g transform="translate(300,920) scale(3.4333333333333)"><rect width="6" height="6"/></g>
<g transform="translate(340,920) scale(3.4333333333333)"><rect width="6" height="6"/></g>
<g transform="translate(380,920) scale(3.4333333333333)"><rect width="6" height="6"/></g>
<g transform="translate(420,920) scale(3.4333333333333)"><rect width="6" height="6"/></g>
<g transform="translate(520,920) scale(3.4333333333333)"><rect width="6" height="6"/></g>
<g transform="translate(600,920) scale(3.4333333333333)"><rect width="6" height="6"/></g>
<g transform="translate(680,920) scale(3.4333333333333)"><rect width="6" height="6"/></g>
<g transform="translate(700,920) scale(3.4333333333333)"><rect width="6" height="6"/></g>
<g transform="translate(720,920) scale(3.4333333333333)"><rect width="6" height="6"/></g>
<g transform="translate(740,920) scale(3.4333333333333)"><rect width="6" height="6"/></g>
<g transform="translate(820,920) scale(3.4333333333333)"><rect width="6" height="6"/></g>
<g transform="translate(840,920) scale(3.4333333333333)"><rect width="6" height="6"/></g>
<g transform="translate(860,920) scale(3.4333333333333)"><rect width="6" height="6"/></g>
<g transform="translate(880,920) scale(3.4333333333333)"><rect width="6" height="6"/></g>
</g><g><g transform="translate(40,40)"  fill="#000000"><g transform="scale(10)"><path d="M0,0v14h14V0H0z M12,12H2V2h10V12z"/></g></g>
<g transform="translate(800,40)"  fill="#000000"><g transform="scale(10)"><path d="M0,0v14h14V0H0z M12,12H2V2h10V12z"/></g></g>
<g transform="translate(40,800)"  fill="#000000"><g transform="scale(10)"><path d="M0,0v14h14V0H0z M12,12H2V2h10V12z"/></g></g>
<g transform="translate(80,80)"  fill="#000000"><g transform="scale(10)"><rect width="6" height="6"/></g></g>
<g transform="translate(840,80)"  fill="#000000"><g transform="scale(10)"><rect width="6" height="6"/></g></g>
<g transform="translate(80,840)"  fill="#000000"><g transform="scale(10)"><rect width="6" height="6"/></g></g></g>
</svg>